<svg xmlns="http://www.w3.org/2000/svg" xmlns:xlink="http://www.w3.org/1999/xlink" viewBox="0 0 32 32" fill="#5B5A5A">
  <path d="M11.105469 4C10.941406 3.996094 10.785156 4 10.632813 4.007813L10.628906 4.011719C10.28125 4.039063 9.929688 4.128906 9.601563 4.292969L9.601563 4.296875C8.914063 4.644531 8.496094 5.300781 8.273438 5.984375C8.050781 6.671875 7.988281 7.429688 8 8.257813C8.019531 9.285156 8.257813 10.484375 8.609375 11.734375C8.007813 11.886719 7.4375 12.058594 6.910156 12.25C5.84375 12.640625 4.9375 13.105469 4.242188 13.695313C3.542969 14.285156 3 15.066406 3 16C3 17.074219 3.582031 17.964844 4.28125 18.578125C4.984375 19.195313 5.824219 19.613281 6.636719 19.933594L7.363281 18.066406C6.6875 17.804688 6.03125 17.453125 5.601563 17.078125C5.175781 16.703125 5 16.382813 5 16C5 15.84375 5.097656 15.585938 5.527344 15.222656C5.957031 14.863281 6.679688 14.464844 7.597656 14.128906C8.082031 13.953125 8.628906 13.792969 9.210938 13.652344C9.464844 14.347656 9.746094 15.039063 10.035156 15.71875C8.476563 19.039063 7.964844 22.21875 8 24.253906C8.023438 25.621094 8.523438 26.839844 9.535156 27.496094C10.191406 27.917969 11.023438 28.128906 11.890625 28.011719C12.753906 27.894531 13.632813 27.488281 14.578125 26.8125L13.421875 25.1875C12.648438 25.738281 12.042969 25.972656 11.617188 26.03125C11.191406 26.085938 10.925781 26.015625 10.625 25.816406C10.304688 25.609375 10.015625 25.144531 10 24.21875C9.976563 22.859375 10.285156 20.621094 11.175781 18.183594C11.339844 18.503906 11.5 18.820313 11.660156 19.117188L11.65625 19.117188C12.722656 21.09375 14.324219 23.460938 16 25.265625C16.835938 26.167969 17.683594 26.929688 18.5625 27.4375C19.414063 27.925781 20.425781 28.1875 21.359375 27.765625C22.183594 27.480469 22.695313 26.746094 22.945313 25.953125C23.203125 25.125 23.269531 24.15625 23.199219 23.058594C23.050781 20.867188 22.308594 18.171875 20.878906 15.527344L19.121094 16.472656C20.414063 18.875 21.078125 21.347656 21.203125 23.191406C21.265625 24.117188 21.183594 24.882813 21.035156 25.351563C20.890625 25.820313 20.742188 25.894531 20.722656 25.902344L20.628906 25.925781L20.546875 25.96875C20.433594 26.027344 20.148438 26.042969 19.5625 25.703125C18.972656 25.363281 18.222656 24.71875 17.46875 23.90625C15.957031 22.277344 14.398438 19.988281 13.421875 18.171875C13.035156 17.453125 12.636719 16.621094 12.25 15.738281C12.523438 15.214844 12.820313 14.695313 13.15625 14.179688C13.40625 13.789063 13.664063 13.414063 13.921875 13.035156C14.214844 13.027344 14.503906 13 14.800781 13C15.375 13 15.960938 13.015625 16.5625 13.046875C19.75 13.210938 22.53125 13.84375 24.417969 14.671875C25.359375 15.082031 26.070313 15.546875 26.488281 15.96875C26.910156 16.390625 27.015625 16.699219 27 16.949219C27 17.015625 26.882813 17.300781 26.40625 17.621094C25.925781 17.941406 25.15625 18.25 24.226563 18.417969L24.574219 20.386719C25.726563 20.179688 26.730469 19.808594 27.515625 19.28125C28.304688 18.753906 28.949219 18.023438 29 17.050781C29.046875 16.101563 28.582031 15.234375 27.90625 14.558594C27.230469 13.878906 26.316406 13.320313 25.21875 12.839844C23.019531 11.875 20.050781 11.226563 16.667969 11.046875C16.222656 11.027344 15.785156 11.019531 15.347656 11.015625C16.117188 9.984375 16.878906 9.058594 17.597656 8.292969C19.007813 6.800781 20.316406 6.023438 20.917969 6C21.179688 5.992188 21.328125 6.039063 21.453125 6.117188C21.710938 6.289063 22.050781 6.695313 22.03125 7.390625C22.015625 7.925781 21.789063 8.957031 21.503906 9.59375L23.328125 10.40625C23.75 9.472656 24.003906 8.371094 24.03125 7.445313C24.066406 6.074219 23.390625 4.992188 22.542969 4.441406C22.03125 4.113281 21.429688 3.980469 20.84375 4C19.148438 4.066406 17.691406 5.28125 16.144531 6.921875C15.050781 8.078125 13.9375 9.511719 12.839844 11.078125C12.078125 11.136719 11.332031 11.214844 10.621094 11.328125C10.257813 10.101563 10.015625 8.996094 10 8.226563C9.988281 7.535156 10.058594 6.964844 10.175781 6.601563C10.296875 6.234375 10.417969 6.125 10.511719 6.078125C10.585938 6.039063 10.664063 6.015625 10.78125 6.007813C11.320313 5.964844 12.421875 6.195313 13.484375 7.1875L14.847656 5.726563C13.59375 4.554688 12.234375 4.050781 11.105469 4 Z M 11.378906 13.253906C11.355469 13.296875 11.332031 13.335938 11.308594 13.378906C11.292969 13.34375 11.277344 13.304688 11.265625 13.265625C11.304688 13.261719 11.34375 13.257813 11.378906 13.253906 Z M 16 14C14.894531 14 14 14.894531 14 16C14 17.105469 14.894531 18 16 18C17.105469 18 18 17.105469 18 16C18 14.894531 17.105469 14 16 14Z" fill="#5B5A5A" />
</svg>